<?xml version="1.0" encoding="utf-8"?>
<Project name="natsu_edit" themeId="0" version="65540" templateID="SimpleProjectTemplate">
  <MediaItems>
    <MediaItem id="1" filePath="C:\Users\rejom\Documents\fairy_tail\images\fairytail\fairy_tail\natsu\104763.jpg" arWidth="1920" arHeight="1200" duration="0" songTitle="" songArtist="" songAlbum="" songCopyrightUrl="" songArtistUrl="" songAudioFileUrl="" stabilizationMode="0" mediaItemType="2" />
    <MediaItem id="2" filePath="C:\Users\rejom\Documents\fairy_tail\images\fairytail\fairy_tail\natsu\167128.jpg" arWidth="1636" arHeight="1215" duration="0" songTitle="" songArtist="" songAlbum="" songCopyrightUrl="" songArtistUrl="" songAudioFileUrl="" stabilizationMode="0" mediaItemType="2" />
    <MediaItem id="3" filePath="C:\Users\rejom\Documents\fairy_tail\images\fairytail\fairy_tail\natsu\600984.jpg" arWidth="1920" arHeight="1080" duration="0" songTitle="" songArtist="" songAlbum="" songCopyrightUrl="" songArtistUrl="" songAudioFileUrl="" stabilizationMode="0" mediaItemType="2" />
    <MediaItem id="4" filePath="C:\Users\rejom\Documents\fairy_tail\images\fairytail\fairy_tail\natsu\726626.png" arWidth="1920" arHeight="1200" duration="0" songTitle="" songArtist="" songAlbum="" songCopyrightUrl="" songArtistUrl="" songAudioFileUrl="" stabilizationMode="0" mediaItemType="2" />
    <MediaItem id="5" filePath="C:\Users\rejom\Documents\fairy_tail\images\fairytail\fairy_tail\natsu\741444.png" arWidth="2500" arHeight="1630" duration="0" songTitle="" songArtist="" songAlbum="" songCopyrightUrl="" songArtistUrl="" songAudioFileUrl="" stabilizationMode="0" mediaItemType="2" />
    <MediaItem id="6" filePath="C:\Users\rejom\Documents\fairy_tail\images\fairytail\fairy_tail\natsu\derniÃ¨re_enfant.jpg" arWidth="864" arHeight="480" duration="0" songTitle="" songArtist="" songAlbum="" songCopyrightUrl="" songArtistUrl="" songAudioFileUrl="" stabilizationMode="0" mediaItemType="2" />
    <MediaItem id="7" filePath="C:\Users\rejom\Documents\fairy_tail\images\fairytail\fairy_tail\natsu\&amp;&amp;&amp;&amp;&amp;&amp;&amp;&amp;&amp;&amp;&amp;&amp;&amp;&amp;&amp;&amp;&amp;&amp;&amp;&amp;&amp;&amp;&amp;&amp;&amp;&amp;&amp;&amp;&amp;&amp;&amp;.png" arWidth="1136" arHeight="640" duration="0" songTitle="" songArtist="" songAlbum="" songCopyrightUrl="" songArtistUrl="" songAudioFileUrl="" stabilizationMode="0" mediaItemType="2" />
    <MediaItem id="8" filePath="C:\Users\rejom\Documents\fairy_tail\images\fairytail\fairy_tail\natsu\&amp;&amp;&amp;&amp;&amp;&amp;&amp;&amp;&amp;&amp;&amp;&amp;&amp;&amp;&amp;&amp;&amp;&amp;&amp;&amp;&amp;&amp;&amp;&amp;&amp;&amp;&amp;&amp;&amp;&amp;.jpg" arWidth="1195" arHeight="662" duration="0" songTitle="" songArtist="" songAlbum="" songCopyrightUrl="" songArtistUrl="" songAudioFileUrl="" stabilizationMode="0" mediaItemType="2" />
    <MediaItem id="9" filePath="C:\Users\rejom\Documents\fairy_tail\images\fairytail\fairy_tail\natsu\&amp;&amp;&amp;&amp;&amp;&amp;&amp;&amp;&amp;&amp;&amp;&amp;&amp;&amp;&amp;&amp;&amp;&amp;&amp;&amp;&amp;&amp;&amp;&amp;&amp;&amp;&amp;&amp;&amp;.jpg" arWidth="734" arHeight="1089" duration="0" songTitle="" songArtist="" songAlbum="" songCopyrightUrl="" songArtistUrl="" songAudioFileUrl="" stabilizationMode="0" mediaItemType="2" />
    <MediaItem id="10" filePath="C:\Users\rejom\Documents\fairy_tail\images\fairytail\fairy_tail\natsu\1.jpg" arWidth="736" arHeight="654" duration="0" songTitle="" songArtist="" songAlbum="" songCopyrightUrl="" songArtistUrl="" songAudioFileUrl="" stabilizationMode="0" mediaItemType="2" />
    <MediaItem id="11" filePath="C:\Users\rejom\Documents\fairy_tail\images\fairytail\fairy_tail\natsu\R.gif" arWidth="500" arHeight="281" duration="0" songTitle="" songArtist="" songAlbum="" songCopyrightUrl="" songArtistUrl="" songAudioFileUrl="" stabilizationMode="0" mediaItemType="2" />
    <MediaItem id="12" filePath="C:\Users\rejom\Documents\fairy_tail\images\fairytail\fairy_tail\natsu\R.png" arWidth="1006" arHeight="794" duration="0" songTitle="" songArtist="" songAlbum="" songCopyrightUrl="" songArtistUrl="" songAudioFileUrl="" stabilizationMode="0" mediaItemType="2" />
    <MediaItem id="13" filePath="C:\Users\rejom\Documents\fairy_tail\images\fairytail\fairy_tail\natsu\R1.jpg" arWidth="736" arHeight="1023" duration="0" songTitle="" songArtist="" songAlbum="" songCopyrightUrl="" songArtistUrl="" songAudioFileUrl="" stabilizationMode="0" mediaItemType="2" />
    <MediaItem id="14" filePath="C:\Users\rejom\Downloads\anime-glow-up-fairy-tail-anime-glowup-fairytail.mp3" arWidth="0" arHeight="0" duration="14.784000000000001" songTitle="anime glow upðŸ”¥ | Fairy Tail | #anime #glowup #fairytail" songArtist="" songAlbum="" songCopyrightUrl="" songArtistUrl="" songAudioFileUrl="" stabilizationMode="0" mediaItemType="3" />
    <MediaItem id="15" filePath="C:\Users\rejom\Documents\fairy_tail\images\fairytail\fairy_tail\natsu\11.jpg" arWidth="196" arHeight="256" duration="0" songTitle="" songArtist="" songAlbum="" songCopyrightUrl="" songArtistUrl="" songAudioFileUrl="" stabilizationMode="0" mediaItemType="2" />
    <MediaItem id="16" filePath="C:\Users\rejom\Documents\fairy_tail\images\fairytail\fairy_tail\natsu\this_one.jpg" arWidth="736" arHeight="1010" duration="0" songTitle="" songArtist="" songAlbum="" songCopyrightUrl="" songArtistUrl="" songAudioFileUrl="" stabilizationMode="0" mediaItemType="2" />
  </MediaItems>
  <Extents>
    <ImageClip extentID="17" gapBefore="0" mediaItemID="13" duration="1">
      <Effects>
        <PanAndZoomShapeEffect effectTemplateID="PanAndZoomEffectPanBottomToTopAlongMiddleTemplate">
          <BoundProperties>
            <BoundPropertyInt Name="effectType" Value="4" />
          </BoundProperties>
        </PanAndZoomShapeEffect>
      </Effects>
      <Transitions>
        <ShapeEffect effectTemplateID="CinematicFadeThroughGrayTransitionTemplate" duration="0.040000000000000001">
          <BoundProperties />
        </ShapeEffect>
      </Transitions>
      <BoundProperties>
        <BoundPropertyInt Name="rotateStepNinety" Value="0" />
      </BoundProperties>
    </ImageClip>
    <TitleClip extentID="18" gapBefore="0" duration="1">
      <Effects />
      <Transitions>
        <ShapeEffect effectTemplateID="CinematicFadeThroughGrayTransitionTemplate" duration="0.040000000000000001">
          <BoundProperties />
        </ShapeEffect>
      </Transitions>
      <BoundProperties>
        <BoundPropertyFloatSet Name="diffuseColor">
          <BoundPropertyFloatElement Value="0" />
          <BoundPropertyFloatElement Value="0" />
          <BoundPropertyFloatElement Value="0" />
        </BoundPropertyFloatSet>
        <BoundPropertyFloat Name="transparency" Value="0" />
      </BoundProperties>
    </TitleClip>
    <AudioClip extentID="20" gapBefore="0" mediaItemID="14" inTime="0" outTime="0" speed="1">
      <Effects />
      <Transitions />
      <BoundProperties>
        <BoundPropertyBool Name="Mute" Value="false" />
        <BoundPropertyFloat Name="Volume" Value="1" />
      </BoundProperties>
    </AudioClip>
    <ImageClip extentID="21" gapBefore="0" mediaItemID="15" duration="1">
      <Effects>
        <PanAndZoomShapeEffect effectTemplateID="PanAndZoomEffectPanBottomToTopAlongLeftTemplate">
          <BoundProperties>
            <BoundPropertyInt Name="effectType" Value="4" />
          </BoundProperties>
        </PanAndZoomShapeEffect>
      </Effects>
      <Transitions>
        <ShapeEffect effectTemplateID="CinematicFadeThroughGrayTransitionTemplate" duration="0.040000000000000001">
          <BoundProperties />
        </ShapeEffect>
      </Transitions>
      <BoundProperties>
        <BoundPropertyInt Name="rotateStepNinety" Value="0" />
      </BoundProperties>
    </ImageClip>
    <ImageClip extentID="22" gapBefore="0" mediaItemID="1" duration="1">
      <Effects>
        <PanAndZoomShapeEffect effectTemplateID="PanAndZoomEffectPanBottomToTopAlongLeftTemplate">
          <BoundProperties>
            <BoundPropertyInt Name="effectType" Value="4" />
          </BoundProperties>
        </PanAndZoomShapeEffect>
      </Effects>
      <Transitions>
        <ShapeEffect effectTemplateID="CinematicFadeThroughGrayTransitionTemplate" duration="0.040000000000000001">
          <BoundProperties />
        </ShapeEffect>
      </Transitions>
      <BoundProperties>
        <BoundPropertyInt Name="rotateStepNinety" Value="0" />
      </BoundProperties>
    </ImageClip>
    <ImageClip extentID="23" gapBefore="0" mediaItemID="16" duration="1">
      <Effects>
        <PanAndZoomShapeEffect effectTemplateID="PanAndZoomEffectZoomInFullToTopLeftTemplate">
          <BoundProperties>
            <BoundPropertyInt Name="effectType" Value="5" />
          </BoundProperties>
        </PanAndZoomShapeEffect>
      </Effects>
      <Transitions>
        <ShapeEffect effectTemplateID="CinematicFadeThroughGrayTransitionTemplate" duration="0.040000000000000001">
          <BoundProperties />
        </ShapeEffect>
      </Transitions>
      <BoundProperties>
        <BoundPropertyInt Name="rotateStepNinety" Value="0" />
      </BoundProperties>
    </ImageClip>
    <ImageClip extentID="6" gapBefore="0" mediaItemID="2" duration="1">
      <Effects>
        <PanAndZoomShapeEffect effectTemplateID="PanAndZoomEffectZoomInFullToRightMiddleTemplate">
          <BoundProperties>
            <BoundPropertyInt Name="effectType" Value="5" />
          </BoundProperties>
        </PanAndZoomShapeEffect>
      </Effects>
      <Transitions>
        <ShapeEffect effectTemplateID="CinematicFadeThroughGrayTransitionTemplate" duration="0.040000000000000001">
          <BoundProperties />
        </ShapeEffect>
      </Transitions>
      <BoundProperties>
        <BoundPropertyInt Name="rotateStepNinety" Value="0" />
      </BoundProperties>
    </ImageClip>
    <ImageClip extentID="7" gapBefore="0" mediaItemID="3" duration="1">
      <Effects>
        <PanAndZoomShapeEffect effectTemplateID="PanAndZoomEffectZoomInFullToCenterTemplate">
          <BoundProperties>
            <BoundPropertyInt Name="effectType" Value="5" />
          </BoundProperties>
        </PanAndZoomShapeEffect>
      </Effects>
      <Transitions>
        <ShapeEffect effectTemplateID="CinematicFadeThroughGrayTransitionTemplate" duration="0.040000000000000001">
          <BoundProperties />
        </ShapeEffect>
      </Transitions>
      <BoundProperties>
        <BoundPropertyInt Name="rotateStepNinety" Value="0" />
      </BoundProperties>
    </ImageClip>
    <ImageClip extentID="8" gapBefore="0" mediaItemID="4" duration="1">
      <Effects>
        <PanAndZoomShapeEffect effectTemplateID="PanAndZoomEffectZoomOutBottomMiddleToFullTemplate">
          <BoundProperties>
            <BoundPropertyInt Name="effectType" Value="6" />
          </BoundProperties>
        </PanAndZoomShapeEffect>
      </Effects>
      <Transitions>
        <ShapeEffect effectTemplateID="CinematicFadeThroughGrayTransitionTemplate" duration="0.040000000000000001">
          <BoundProperties />
        </ShapeEffect>
      </Transitions>
      <BoundProperties>
        <BoundPropertyInt Name="rotateStepNinety" Value="0" />
      </BoundProperties>
    </ImageClip>
    <ImageClip extentID="9" gapBefore="0" mediaItemID="5" duration="1">
      <Effects>
        <PanAndZoomShapeEffect effectTemplateID="PanAndZoomEffectZoomInFullToTopLeftTemplate">
          <BoundProperties>
            <BoundPropertyInt Name="effectType" Value="5" />
          </BoundProperties>
        </PanAndZoomShapeEffect>
      </Effects>
      <Transitions>
        <ShapeEffect effectTemplateID="CinematicFadeThroughGrayTransitionTemplate" duration="0.040000000000000001">
          <BoundProperties />
        </ShapeEffect>
      </Transitions>
      <BoundProperties>
        <BoundPropertyInt Name="rotateStepNinety" Value="0" />
      </BoundProperties>
    </ImageClip>
    <ImageClip extentID="10" gapBefore="0" mediaItemID="6" duration="1">
      <Effects>
        <PanAndZoomShapeEffect effectTemplateID="PanAndZoomEffectZoomInFullToCenterWithCCWRotationTemplate">
          <BoundProperties>
            <BoundPropertyInt Name="effectType" Value="5" />
          </BoundProperties>
        </PanAndZoomShapeEffect>
      </Effects>
      <Transitions>
        <ShapeEffect effectTemplateID="CinematicFadeThroughGrayTransitionTemplate" duration="0.040000000000000001">
          <BoundProperties />
        </ShapeEffect>
      </Transitions>
      <BoundProperties>
        <BoundPropertyInt Name="rotateStepNinety" Value="0" />
      </BoundProperties>
    </ImageClip>
    <ImageClip extentID="11" gapBefore="0" mediaItemID="7" duration="1">
      <Effects>
        <PanAndZoomShapeEffect effectTemplateID="PanAndZoomEffectZoomInFullToCenterTemplate">
          <BoundProperties>
            <BoundPropertyInt Name="effectType" Value="5" />
          </BoundProperties>
        </PanAndZoomShapeEffect>
      </Effects>
      <Transitions>
        <ShapeEffect effectTemplateID="CinematicFadeThroughGrayTransitionTemplate" duration="0.040000000000000001">
          <BoundProperties />
        </ShapeEffect>
      </Transitions>
      <BoundProperties>
        <BoundPropertyInt Name="rotateStepNinety" Value="0" />
      </BoundProperties>
    </ImageClip>
    <ImageClip extentID="12" gapBefore="0" mediaItemID="8" duration="1">
      <Effects>
        <PanAndZoomShapeEffect effectTemplateID="PanAndZoomEffectZoomOutTopLeftToFullTemplate">
          <BoundProperties>
            <BoundPropertyInt Name="effectType" Value="6" />
          </BoundProperties>
        </PanAndZoomShapeEffect>
      </Effects>
      <Transitions>
        <ShapeEffect effectTemplateID="CinematicFadeThroughGrayTransitionTemplate" duration="0.040000000000000001">
          <BoundProperties />
        </ShapeEffect>
      </Transitions>
      <BoundProperties>
        <BoundPropertyInt Name="rotateStepNinety" Value="0" />
      </BoundProperties>
    </ImageClip>
    <ImageClip extentID="13" gapBefore="0" mediaItemID="9" duration="1">
      <Effects>
        <PanAndZoomShapeEffect effectTemplateID="PanAndZoomEffectPanBottomToTopAlongLeftTemplate">
          <BoundProperties>
            <BoundPropertyInt Name="effectType" Value="4" />
          </BoundProperties>
        </PanAndZoomShapeEffect>
      </Effects>
      <Transitions>
        <ShapeEffect effectTemplateID="CinematicFadeThroughGrayTransitionTemplate" duration="0.040000000000000001">
          <BoundProperties />
        </ShapeEffect>
      </Transitions>
      <BoundProperties>
        <BoundPropertyInt Name="rotateStepNinety" Value="0" />
      </BoundProperties>
    </ImageClip>
    <ImageClip extentID="14" gapBefore="0" mediaItemID="10" duration="1">
      <Effects>
        <PanAndZoomShapeEffect effectTemplateID="PanAndZoomEffectPanLeftToRightAlongTopTemplate">
          <BoundProperties>
            <BoundPropertyInt Name="effectType" Value="1" />
          </BoundProperties>
        </PanAndZoomShapeEffect>
      </Effects>
      <Transitions>
        <ShapeEffect effectTemplateID="CinematicFadeThroughGrayTransitionTemplate" duration="0.040000000000000001">
          <BoundProperties />
        </ShapeEffect>
      </Transitions>
      <BoundProperties>
        <BoundPropertyInt Name="rotateStepNinety" Value="0" />
      </BoundProperties>
    </ImageClip>
    <ImageClip extentID="15" gapBefore="0" mediaItemID="11" duration="1">
      <Effects>
        <PanAndZoomShapeEffect effectTemplateID="PanAndZoomEffectPanTopToBottomAlongLeftTemplate">
          <BoundProperties>
            <BoundPropertyInt Name="effectType" Value="3" />
          </BoundProperties>
        </PanAndZoomShapeEffect>
      </Effects>
      <Transitions>
        <ShapeEffect effectTemplateID="CinematicFadeThroughGrayTransitionTemplate" duration="0.040000000000000001">
          <BoundProperties />
        </ShapeEffect>
      </Transitions>
      <BoundProperties>
        <BoundPropertyInt Name="rotateStepNinety" Value="0" />
      </BoundProperties>
    </ImageClip>
    <ImageClip extentID="16" gapBefore="0" mediaItemID="12" duration="1">
      <Effects>
        <PanAndZoomShapeEffect effectTemplateID="PanAndZoomEffectPanLeftToRightAlongMiddleTemplate">
          <BoundProperties>
            <BoundPropertyInt Name="effectType" Value="1" />
          </BoundProperties>
        </PanAndZoomShapeEffect>
      </Effects>
      <Transitions>
        <ShapeEffect effectTemplateID="CinematicFadeThroughGrayTransitionTemplate" duration="0.040000000000000001">
          <BoundProperties />
        </ShapeEffect>
      </Transitions>
      <BoundProperties>
        <BoundPropertyInt Name="rotateStepNinety" Value="0" />
      </BoundProperties>
    </ImageClip>
    <ExtentSelector extentID="1" gapBefore="0" primaryTrack="true">
      <Effects />
      <Transitions />
      <BoundProperties />
      <ExtentRefs>
        <ExtentRef id="21" />
        <ExtentRef id="14" />
        <ExtentRef id="13" />
        <ExtentRef id="15" />
        <ExtentRef id="12" />
        <ExtentRef id="17" />
        <ExtentRef id="11" />
        <ExtentRef id="16" />
        <ExtentRef id="10" />
        <ExtentRef id="18" />
        <ExtentRef id="22" />
        <ExtentRef id="6" />
        <ExtentRef id="7" />
        <ExtentRef id="9" />
        <ExtentRef id="23" />
        <ExtentRef id="8" />
      </ExtentRefs>
    </ExtentSelector>
    <ExtentSelector extentID="2" gapBefore="0" primaryTrack="false">
      <Effects />
      <Transitions />
      <BoundProperties />
      <ExtentRefs>
        <ExtentRef id="20" />
      </ExtentRefs>
    </ExtentSelector>
    <ExtentSelector extentID="3" gapBefore="0" primaryTrack="false">
      <Effects />
      <Transitions />
      <BoundProperties />
      <ExtentRefs />
    </ExtentSelector>
    <ExtentSelector extentID="4" gapBefore="0" primaryTrack="false">
      <Effects />
      <Transitions />
      <BoundProperties />
      <ExtentRefs />
    </ExtentSelector>
  </Extents>
  <BoundPlaceholders>
    <BoundPlaceholder placeholderID="SingleExtentView" extentID="0" />
    <BoundPlaceholder placeholderID="Main" extentID="1" />
    <BoundPlaceholder placeholderID="SoundTrack" extentID="2" />
    <BoundPlaceholder placeholderID="Narration" extentID="3" />
    <BoundPlaceholder placeholderID="Text" extentID="4" />
  </BoundPlaceholders>
  <BoundProperties>
    <BoundPropertyFloatSet Name="AspectRatio">
      <BoundPropertyFloatElement Value="1.7777776718139648" />
    </BoundPropertyFloatSet>
    <BoundPropertyFloat Name="DuckedNarrationAndSoundTrackMix" Value="1" />
    <BoundPropertyFloat Name="DuckedVideoAndNarrationMix" Value="0.5" />
    <BoundPropertyFloat Name="DuckedVideoAndSoundTrackMix" Value="1" />
    <BoundPropertyFloat Name="SoundTrackMix" Value="1" />
  </BoundProperties>
  <ThemeOperationLog themeID="0">
    <MonolithicThemeOperations />
  </ThemeOperationLog>
  <AudioDuckingProperties emphasisPlaceholderID="Narration" />
</Project>